<svg xmlns="http://www.w3.org/2000/svg" width="800" height="1000" viewBox="0 0 800 1000" role="img" aria-label="VÉRANO">
<defs><linearGradient id="g" x1="0" y1="0" x2="1" y2="1"><stop offset="0" stop-color="#EFE7D6"/><stop offset="1" stop-color="#D9CDB0"/></linearGradient><filter id="sh" x="-20%" y="-20%" width="140%" height="140%"><feDropShadow dx="0" dy="14.879999999999999" stdDeviation="17.36" flood-color="#000" flood-opacity=".22"/></filter></defs>
<rect width="800" height="1000" fill="url(#g)"/><path d="M144 920 V420 A256 256 0 0 1 656 420 V920Z" fill="#e3dbca" opacity=".5"/><g transform="translate(152 210) scale(1.24) " fill="#3A3A3A" color="#3A3A3A" filter="url(#sh)"><path d="M145 95 L70 125 L40 340 L85 350 L120 210 L120 410 L280 410 L280 210 L315 350 L360 340 L330 125 L255 95 Q200 140 145 95Z"/><path d="M150 95 Q200 10 250 95 Q200 125 150 95Z" opacity=".8"/><path d="M150 320 L250 320 L268 375 L132 375Z" fill="none" stroke="rgba(255,255,255,.35)" stroke-width="3"/></g>
<text x="56.00000000000001" y="930" font-family="Georgia, 'Times New Roman', serif" font-size="27.200000000000003" fill="#111" opacity=".8" letter-spacing="3">VÉRANO</text>
<text x="56.00000000000001" y="894" font-family="Georgia, serif" font-style="italic" font-size="20.8" fill="#111" opacity=".55">Core Pullover Hoodie</text>
</svg>