<svg xmlns="http://www.w3.org/2000/svg" width="1920" height="1080" viewBox="0 0 1920 1080" role="img" aria-label="The Weekend Edit">
<defs><linearGradient id="g" x1="0" y1="0" x2="1" y2="1"><stop offset="0" stop-color="#D6CFC4"/><stop offset="1" stop-color="#7E7566"/></linearGradient><filter id="sh" x="-20%" y="-20%" width="140%" height="140%"><feDropShadow dx="0" dy="20.736000000000004" stdDeviation="24.192000000000004" flood-color="#000" flood-opacity=".22"/></filter></defs>
<rect width="1920" height="1080" fill="url(#g)"/><circle cx="1382.3999999999999" cy="324" r="237.6" fill="#c8c1b6" opacity=".55"/><g transform="translate(691.1999999999999 129.59999999999994) scale(1.7280000000000002) rotate(-4 200 250)" fill="#2a2a2a" color="#2a2a2a" filter="url(#sh)"><path d="M145 95 L70 125 L40 340 L85 350 L120 210 L120 410 L280 410 L280 210 L315 350 L360 340 L330 125 L255 95 Q200 140 145 95Z"/><path d="M150 95 Q200 10 250 95 Q200 125 150 95Z" opacity=".8"/><path d="M150 320 L250 320 L268 375 L132 375Z" fill="none" stroke="rgba(255,255,255,.35)" stroke-width="3"/></g>
<text x="134.4" y="1004.4000000000001" font-family="Georgia, 'Times New Roman', serif" font-size="65.28" fill="#111" opacity=".8" letter-spacing="3">THE WEEKEND EDIT</text>

</svg>