<svg xmlns="http://www.w3.org/2000/svg" width="1200" height="900" viewBox="0 0 1200 900" role="img" aria-label="Streetwear">
<defs><linearGradient id="g" x1="0" y1="0" x2="1" y2="1"><stop offset="0" stop-color="#D3D3D0"/><stop offset="1" stop-color="#9B9B96"/></linearGradient><filter id="sh" x="-20%" y="-20%" width="140%" height="140%"><feDropShadow dx="0" dy="16.200000000000003" stdDeviation="18.900000000000002" flood-color="#000" flood-opacity=".22"/></filter></defs>
<rect width="1200" height="900" fill="url(#g)"/><circle cx="864" cy="270" r="198" fill="#c5c5c2" opacity=".55"/><g transform="translate(378 130.5) scale(1.35) rotate(-4 200 250)" fill="#2B2B2B" color="#2B2B2B" filter="url(#sh)"><path d="M145 85 L70 120 L38 340 L82 350 L120 200 L120 420 L280 420 L280 200 L318 350 L362 340 L330 120 L255 85 L200 130Z"/><path d="M145 85 L200 135 L255 85 M200 135 L200 420 M150 330 L190 330 M210 330 L250 330" fill="none" stroke="rgba(255,255,255,.35)" stroke-width="3"/></g>
<text x="84.00000000000001" y="837" font-family="Georgia, 'Times New Roman', serif" font-size="40.800000000000004" fill="#111" opacity=".8" letter-spacing="3">STREETWEAR</text>

</svg>