<svg xmlns="http://www.w3.org/2000/svg" width="1600" height="600" viewBox="0 0 1600 600" role="img" aria-label="VÉRANO">
<defs><linearGradient id="g" x1="0" y1="0" x2="1" y2="1"><stop offset="0" stop-color="#2b2b2b"/><stop offset="1" stop-color="#111"/></linearGradient><filter id="sh" x="-20%" y="-20%" width="140%" height="140%"><feDropShadow dx="0" dy="11.52" stdDeviation="13.44" flood-color="#000" flood-opacity=".22"/></filter></defs>
<rect width="1600" height="600" fill="url(#g)"/><path d="M288 552 V252 A512 512 0 0 1 1312 252 V552Z" fill="#1f1f1f" opacity=".5"/><g transform="translate(608 72) scale(0.96) " fill="#e8e2d4" color="#e8e2d4" filter="url(#sh)"><path d="M145 85 L70 120 L38 340 L82 350 L120 200 L120 420 L280 420 L280 200 L318 350 L362 340 L330 120 L255 85 L200 130Z"/><path d="M145 85 L200 135 L255 85 M200 135 L200 420 M150 330 L190 330 M210 330 L250 330" fill="none" stroke="rgba(255,255,255,.35)" stroke-width="3"/></g>


</svg>